<svg xmlns="http://www.w3.org/2000/svg" xmlns:xlink="http://www.w3.org/1999/xlink" version="1.1" id="code-forces" x="0px" y="0px" enable-background="new 0 0 612 792" xml:space="preserve" viewBox="0 166.5 612 459">
<path fill="#FFFFFF" d="M557.021,625.5h-81.294c-30.319,0-54.978-24.302-54.978-54.188V396c0-29.886,24.658-54.188,54.978-54.188  h81.294c30.32,0,54.979,24.302,54.979,54.188v175.313C612,601.198,587.342,625.5,557.021,625.5z M475.728,380.063  c-9.23,0-16.728,7.14-16.728,15.938v175.313c0,8.798,7.497,15.938,16.728,15.938h81.294c9.231,0,16.729-7.14,16.729-15.938V396  c0-8.797-7.497-15.938-16.729-15.938H475.728z M341.063,625.5h-70.125c-29.886,0-54.188-24.302-54.188-54.188V220.688  c0-29.886,24.301-54.188,54.188-54.188h70.125c29.886,0,54.188,24.302,54.188,54.188v350.625  C395.25,601.198,370.948,625.5,341.063,625.5z M270.938,204.75c-8.797,0-15.938,7.14-15.938,15.938v350.625  c0,8.798,7.14,15.938,15.938,15.938h70.125c8.798,0,15.938-7.14,15.938-15.938V220.688c0-8.797-7.14-15.938-15.938-15.938H270.938z   M136.272,625.5H54.978C24.659,625.5,0,601.198,0,571.313V325.875c0-29.886,24.659-54.188,54.978-54.188h81.294  c30.319,0,54.978,24.302,54.978,54.188v245.438C191.25,601.198,166.591,625.5,136.272,625.5z M54.978,309.938  c-9.231,0-16.728,7.14-16.728,15.938v245.438c0,8.798,7.497,15.938,16.728,15.938h81.294c9.231,0,16.728-7.14,16.728-15.938V325.875  c0-8.797-7.497-15.938-16.728-15.938H54.978z"/>
</svg>